<svg width="140" height="72" viewBox="0 0 140 72" fill="none" xmlns="http://www.w3.org/2000/svg">
<path d="M139.25 4.93875C139.25 4.93875 134.868 1.68402 123.928 0.616607L128.958 17.0849C137.435 10.0869 139.25 4.93875 139.25 4.93875ZM122.546 0.367548C110.04 -0.853138 89.5542 0.588301 58.2704 11.7313C57.2665 12.0649 56.3375 12.3887 55.4798 12.7015C54.6219 13.0136 53.8359 13.3138 53.1186 13.5991C52.4012 13.8845 51.7524 14.1543 51.1697 14.4062C50.5863 14.6584 50.0691 14.8926 49.6149 15.106C49.16 15.3197 48.768 15.5119 48.4366 15.6809C48.1043 15.8494 47.832 15.995 47.6169 16.1131C47.1852 16.3497 46.9824 16.4802 46.9824 16.4802C46.9824 16.4802 47.0102 16.4378 47.1106 16.3401C47.2112 16.2431 47.3841 16.0902 47.6737 15.87C47.8187 15.7595 47.9926 15.6324 48.2014 15.4862C48.4103 15.3399 48.6536 15.1755 48.9378 14.9908C49.2218 14.8055 49.5462 14.6009 49.9161 14.3739C50.286 14.1469 50.7023 13.898 51.1694 13.6259C51.6372 13.3536 52.12 13.0875 52.6075 12.8292C53.0945 12.5718 53.5864 12.323 54.0711 12.0856C54.5566 11.8487 55.034 11.6228 55.4941 11.4113C55.6746 11.3285 55.8358 11.2584 56.0101 11.1806L25.5671 3.76006L17.72 6.04666L38.7431 22.2925L46.1757 46.6268L37.8178 71.8466L45.6613 69.5488L66.6731 46.2881C66.4806 46.3215 66.3033 46.354 66.1022 46.387C65.6024 46.4687 65.0796 46.5483 64.5451 46.6222C64.0114 46.6966 63.4644 46.7651 62.9167 46.8237C62.3683 46.8826 61.8197 46.9308 61.2796 46.9663C60.7402 47.0016 60.2572 47.0274 59.8236 47.0459C59.3895 47.0652 59.006 47.076 58.6676 47.0808C58.3294 47.0862 58.035 47.086 57.7808 47.0812C57.5259 47.0767 57.3107 47.0684 57.1287 47.0578C56.7655 47.037 56.5369 47.0074 56.399 46.9825C56.2612 46.9576 56.2146 46.9387 56.2146 46.9387C56.2146 46.9387 56.4563 46.9327 56.9451 46.8881C57.1902 46.8657 57.4966 46.8345 57.8663 46.7885C58.2356 46.7436 58.6681 46.6839 59.1641 46.6071C59.66 46.5304 60.2198 46.4357 60.8438 46.319C61.468 46.2031 62.1569 46.0643 62.9113 45.9002C63.6647 45.7355 64.4836 45.5455 65.3695 45.325C66.2548 45.1054 67.2063 44.8549 68.2245 44.5708C100.44 36.3303 118.255 26.0696 127.951 18.0634L122.546 0.367548ZM103.443 15.8044C103.447 15.8127 103.449 15.8211 103.451 15.8298C103.457 15.8451 103.461 15.8599 103.465 15.8749C103.469 15.8897 103.475 15.9043 103.478 15.9193C103.483 15.9348 103.487 15.9491 103.491 15.9639C103.496 15.9794 103.5 15.9944 103.504 16.0094C103.508 16.0242 103.513 16.039 103.517 16.054C103.52 16.069 103.525 16.0845 103.529 16.0995C103.533 16.1145 103.537 16.1296 103.54 16.1446C103.545 16.1594 103.549 16.1744 103.553 16.1894C103.557 16.2051 103.56 16.2194 103.564 16.2344C103.568 16.2502 103.572 16.2652 103.575 16.2804C103.579 16.2954 103.583 16.3104 103.586 16.3257C103.589 16.3407 103.593 16.3557 103.597 16.3707C103.6 16.3859 103.604 16.4009 103.607 16.4169C103.61 16.4321 103.614 16.4471 103.617 16.4616C103.621 16.4773 103.624 16.4926 103.627 16.5078C103.631 16.523 103.634 16.5381 103.637 16.5533C103.641 16.5692 103.644 16.5837 103.647 16.599C103.65 16.6142 103.653 16.6294 103.656 16.6446C103.659 16.6599 103.662 16.6753 103.665 16.6905C103.668 16.7058 103.67 16.7212 103.673 16.7364C103.676 16.7517 103.679 16.7671 103.682 16.7823C103.685 16.7976 103.687 16.8132 103.69 16.8285C103.692 16.8439 103.695 16.8591 103.698 16.8746C103.7 16.89 103.703 16.9055 103.706 16.9207C103.708 16.9361 103.711 16.9516 103.713 16.967C103.715 16.9825 103.718 16.9979 103.72 17.0127C103.722 17.0281 103.725 17.0435 103.727 17.059C103.73 17.0744 103.732 17.0899 103.734 17.1055C103.736 17.1203 103.738 17.1366 103.74 17.1514C103.742 17.1668 103.744 17.1825 103.746 17.1979C103.748 17.2136 103.751 17.229 103.752 17.244C103.754 17.2596 103.755 17.2753 103.758 17.2907C103.76 17.3064 103.761 17.3213 103.763 17.337C103.764 17.3527 103.766 17.3683 103.768 17.3833C103.769 17.3989 103.772 17.4144 103.773 17.4295C103.774 17.4452 103.776 17.4609 103.778 17.4765C103.778 17.4917 103.78 17.5073 103.782 17.523C103.783 17.5382 103.784 17.5538 103.786 17.5695C103.787 17.5847 103.788 17.6003 103.789 17.6155C103.791 17.6311 103.792 17.647 103.793 17.6622C103.794 17.6778 103.795 17.6939 103.796 17.7089C103.797 17.7248 103.798 17.7399 103.799 17.7558C103.8 17.7717 103.801 17.7868 103.802 17.802C103.803 17.8179 103.803 17.8331 103.804 17.8489C103.805 17.8641 103.806 17.88 103.807 17.8952C103.807 17.9112 103.808 17.9264 103.809 17.9423C103.809 17.9577 103.81 17.9728 103.81 17.9889C103.811 18.0041 103.811 18.0202 103.811 18.0356C103.812 18.0507 103.812 18.0668 103.813 18.082C103.813 18.0981 103.813 18.1135 103.814 18.1289C103.814 18.1449 103.814 18.1596 103.814 18.1757C103.815 18.1916 103.815 18.2063 103.814 18.2226C103.815 18.2377 103.815 18.2533 103.815 18.2687C103.815 18.2848 103.815 18.3002 103.814 18.3158C103.814 18.3312 103.815 18.3466 103.815 18.3619C103.814 18.3783 103.814 18.3936 103.814 18.4092C103.813 18.4248 103.813 18.4402 103.812 18.4558C103.813 18.4712 103.812 18.4868 103.811 18.5024C103.811 18.5178 103.811 18.5334 103.81 18.549C103.809 18.5646 103.809 18.5802 103.808 18.5958C103.808 18.6114 103.807 18.627 103.806 18.6426C103.806 18.6582 103.805 18.6731 103.804 18.6887C103.804 18.7043 103.802 18.7201 103.802 18.7357C103.801 18.7513 103.8 18.7671 103.799 18.782C103.797 18.7978 103.797 18.8134 103.796 18.8283C103.795 18.8441 103.793 18.86 103.793 18.8756C103.791 18.8907 103.79 18.9065 103.789 18.9221C103.788 18.9372 103.786 18.953 103.786 18.9686C103.784 18.9837 103.783 18.9995 103.781 19.0153C103.78 19.0305 103.779 19.0463 103.777 19.0614C103.776 19.0772 103.773 19.0925 103.773 19.1074C103.771 19.1235 103.769 19.1393 103.768 19.1544C103.766 19.1704 103.764 19.1855 103.763 19.2006C103.76 19.216 103.759 19.2318 103.757 19.2471C103.755 19.2629 103.753 19.2782 103.752 19.2934C103.75 19.3094 103.747 19.3247 103.746 19.3398C103.743 19.3551 103.741 19.3705 103.739 19.3865C103.737 19.4018 103.735 19.4169 103.733 19.4322C103.73 19.4478 103.729 19.4636 103.727 19.4789C103.724 19.4943 103.721 19.5098 103.719 19.5251C103.717 19.5405 103.715 19.5558 103.712 19.5713C103.71 19.5865 103.707 19.602 103.705 19.6173C103.702 19.6329 103.699 19.6475 103.697 19.6628C103.694 19.6783 103.691 19.6939 103.689 19.7092C103.686 19.724 103.684 19.7401 103.681 19.7556C103.678 19.7712 103.675 19.7858 103.672 19.8013C103.669 19.8161 103.666 19.8317 103.663 19.8472C103.66 19.8628 103.658 19.8774 103.654 19.8932C103.651 19.908 103.649 19.9233 103.645 19.9391C103.642 19.9539 103.639 19.9694 103.636 19.9843C103.633 19.9998 103.63 20.0147 103.626 20.0304C103.623 20.0453 103.619 20.0603 103.616 20.0759C103.613 20.0907 103.61 20.1055 103.606 20.1213C103.603 20.1361 103.598 20.1514 103.595 20.1669C103.591 20.182 103.588 20.1968 103.585 20.2126C103.581 20.2276 103.578 20.2424 103.574 20.2575C103.57 20.2726 103.566 20.2876 103.562 20.3034C103.558 20.3177 103.554 20.3328 103.55 20.3478C103.547 20.3629 103.543 20.3786 103.539 20.3937C103.535 20.4087 103.531 20.4231 103.527 20.4381C103.523 20.4534 103.519 20.4684 103.515 20.4835C103.511 20.4985 103.506 20.5138 103.502 20.5284C103.498 20.5434 103.494 20.5585 103.489 20.5737C103.485 20.5881 103.48 20.6034 103.476 20.6186C103.472 20.633 103.467 20.6482 103.463 20.6626C103.459 20.6778 103.454 20.6931 103.449 20.7077C103.444 20.7222 103.44 20.7373 103.436 20.7519C103.431 20.7671 103.426 20.7817 103.422 20.797C103.417 20.8115 103.412 20.8261 103.408 20.8413C103.403 20.8559 103.397 20.8707 103.393 20.886C103.388 20.9005 103.383 20.9151 103.378 20.9296C103.373 20.9444 103.368 20.9597 103.363 20.9745C103.358 20.989 103.353 21.0036 103.348 21.0184C103.343 21.0329 103.337 21.0477 103.332 21.0623C103.327 21.0771 103.321 21.0918 103.317 21.1064C103.311 21.1212 103.305 21.1352 103.3 21.15C103.294 21.1648 103.29 21.1794 103.284 21.1941C103.278 21.2082 103.273 21.223 103.267 21.2378C103.262 21.2518 103.256 21.2666 103.251 21.2814C103.245 21.2955 103.239 21.3102 103.234 21.325C103.228 21.3391 103.222 21.3532 103.216 21.3682C103.211 21.3822 103.204 21.3972 103.199 21.4113C103.193 21.4254 103.187 21.4402 103.181 21.4544C103.175 21.4692 103.169 21.4835 103.163 21.4976C103.157 21.5126 103.151 21.5267 103.145 21.5409C103.139 21.5552 103.133 21.5693 103.126 21.5836C103.12 21.5979 103.114 21.6119 103.108 21.6262C103.101 21.6405 103.095 21.6548 103.089 21.6691C103.083 21.6832 103.076 21.6975 103.07 21.7117C103.064 21.726 103.057 21.7396 103.051 21.7539C103.044 21.7682 103.037 21.7827 103.03 21.7963C103.024 21.8106 103.018 21.8249 103.011 21.8391C103.004 21.8529 102.997 21.8672 102.991 21.8808C102.984 21.8951 102.977 21.9089 102.97 21.9225C102.964 21.9368 102.956 21.9506 102.949 21.9651C102.943 21.9787 102.936 21.9932 102.929 22.0067C102.922 22.0205 102.915 22.0348 102.908 22.0486C102.9 22.0624 102.894 22.076 102.887 22.0898C102.879 22.1036 102.872 22.1174 102.864 22.1312C102.858 22.1448 102.851 22.1586 102.843 22.1724C102.836 22.1862 102.828 22.2 102.821 22.2138C102.814 22.2276 102.806 22.2414 102.799 22.2552C102.792 22.2683 102.784 22.2821 102.777 22.2959C102.77 22.3097 102.761 22.323 102.754 22.3368C102.747 22.3506 102.739 22.3637 102.731 22.3777C102.723 22.3908 102.716 22.4046 102.708 22.4179C102.7 22.4317 102.692 22.445 102.685 22.4588C102.677 22.4721 102.669 22.4852 102.661 22.4985C102.653 22.5116 102.645 22.5256 102.637 22.5389C102.629 22.552 102.621 22.566 102.613 22.5794C102.605 22.5925 102.596 22.606 102.589 22.6191C102.581 22.6324 102.572 22.645 102.564 22.659C102.557 22.6721 102.548 22.6847 102.54 22.698C102.531 22.7115 102.523 22.7246 102.515 22.7372C102.506 22.7508 102.498 22.7639 102.489 22.7774C102.481 22.7907 102.473 22.8033 102.464 22.8159C102.456 22.8292 102.448 22.8425 102.438 22.8553C102.43 22.8686 102.422 22.8812 102.412 22.8941C102.404 22.9074 102.396 22.92 102.387 22.9328C102.378 22.9461 102.369 22.9589 102.36 22.9717C102.352 22.9851 102.343 22.9977 102.334 23.0098C102.325 23.0231 102.316 23.0359 102.307 23.0487C102.299 23.0613 102.289 23.0742 102.28 23.087C102.272 23.0996 102.263 23.1124 102.253 23.1252C102.244 23.1374 102.236 23.1499 102.226 23.163C102.217 23.1749 102.208 23.1877 102.199 23.2005C102.189 23.2133 102.18 23.2255 102.171 23.2383C102.161 23.2504 102.152 23.2632 102.143 23.2753C102.134 23.2881 102.124 23.3003 102.115 23.3124C102.105 23.3254 102.096 23.3375 102.086 23.3497C102.077 23.3618 102.068 23.3746 102.058 23.3867C102.048 23.399 102.039 23.4111 102.029 23.4232C102.019 23.4363 102.01 23.4477 102 23.4598C101.99 23.4722 101.98 23.4845 101.971 23.4966C101.961 23.5087 101.951 23.521 101.942 23.5332C101.932 23.5448 101.921 23.5571 101.912 23.5692C101.902 23.5809 101.892 23.593 101.882 23.6046C101.872 23.6169 101.862 23.6291 101.852 23.6407C101.842 23.653 101.832 23.6646 101.821 23.6763C101.811 23.6886 101.802 23.7 101.791 23.7116C101.781 23.7239 101.771 23.7356 101.761 23.7472C101.75 23.7588 101.74 23.7705 101.73 23.7819C101.72 23.7935 101.709 23.806 101.699 23.817C101.689 23.8293 101.678 23.8402 101.668 23.8518C101.657 23.8635 101.647 23.8751 101.637 23.8867C101.626 23.8984 101.615 23.9095 101.605 23.9211C101.594 23.932 101.584 23.9436 101.573 23.9555C101.563 23.9664 101.551 23.9783 101.541 23.9899C101.531 24.0008 101.519 24.0119 101.509 24.0236C101.499 24.0345 101.487 24.0456 101.477 24.0573C101.466 24.0684 101.455 24.0793 101.444 24.0905C101.433 24.1014 101.422 24.1132 101.412 24.1234C101.4 24.1346 101.389 24.1457 101.379 24.1573C101.367 24.1678 101.356 24.1789 101.345 24.19C101.334 24.201 101.323 24.2121 101.313 24.223C101.301 24.2335 101.29 24.2446 101.279 24.2557C101.268 24.2659 101.256 24.2773 101.245 24.2875C101.234 24.2986 101.223 24.3091 101.211 24.3195C101.2 24.3307 101.189 24.3418 101.178 24.352C101.166 24.3626 101.155 24.3729 101.143 24.3833C101.132 24.3946 101.121 24.4049 101.109 24.4155C101.097 24.4259 101.086 24.4364 101.074 24.4468C101.063 24.4572 101.051 24.4677 101.04 24.4781C101.028 24.4888 101.016 24.4992 101.005 24.5096C100.993 24.5194 100.982 24.5298 100.97 24.5404C100.958 24.5501 100.946 24.5606 100.935 24.5703C100.923 24.581 100.911 24.5914 100.899 24.6013C100.887 24.6111 100.876 24.6215 100.863 24.6314C100.852 24.6412 100.84 24.6516 100.828 24.6615C100.815 24.6715 100.804 24.6819 100.792 24.6916C100.78 24.7016 100.768 24.7113 100.756 24.7212C100.744 24.731 100.732 24.7409 100.72 24.7507C100.708 24.7606 100.695 24.7706 100.684 24.7796C100.671 24.7895 100.659 24.7995 100.647 24.8092C100.634 24.8184 100.622 24.8284 100.61 24.8381C100.598 24.8473 100.585 24.8573 100.573 24.8665C100.561 24.8764 100.549 24.8855 100.536 24.8947C100.524 24.9046 100.511 24.9139 100.499 24.9229C100.487 24.9321 100.474 24.9421 100.462 24.9513C100.449 24.9606 100.436 24.9698 100.424 24.979C100.411 24.9883 100.399 24.9975 100.386 25.0068C100.374 25.016 100.361 25.0252 100.348 25.0345C100.336 25.043 100.323 25.0522 100.31 25.0615C100.298 25.07 100.285 25.08 100.272 25.0885C100.26 25.0977 100.247 25.1063 100.234 25.1148C100.222 25.124 100.209 25.1333 100.195 25.142C100.183 25.1503 100.17 25.1598 100.157 25.1683C100.144 25.1769 100.132 25.1854 100.118 25.1941C100.105 25.2027 100.093 25.2119 100.08 25.2198C100.066 25.2292 100.053 25.237 100.041 25.2456C100.028 25.2541 100.014 25.2628 100.001 25.2714C99.9887 25.2799 99.975 25.288 99.9622 25.2965C99.9493 25.305 99.9358 25.3138 99.9228 25.3216C99.91 25.3301 99.8963 25.3382 99.8835 25.3467C99.87 25.3555 99.8569 25.3633 99.8432 25.3713C99.8304 25.3799 99.8165 25.3872 99.8037 25.3957C99.7899 25.4038 99.7769 25.4116 99.7639 25.4194C99.7504 25.4282 99.7374 25.436 99.7237 25.4441C99.7099 25.4521 99.6967 25.4592 99.683 25.4673C99.6702 25.4758 99.6562 25.4831 99.6425 25.4912C99.6295 25.499 99.6162 25.5062 99.6025 25.5142C99.5886 25.5215 99.5755 25.5294 99.5616 25.5367C99.5479 25.5447 99.5347 25.5519 99.5209 25.5599C99.507 25.5673 99.494 25.5751 99.48 25.5824C99.4661 25.5898 99.4528 25.5969 99.4391 25.6049C99.4252 25.6123 99.4112 25.6196 99.398 25.6267C99.3841 25.6341 99.3701 25.6414 99.3569 25.6485C99.3429 25.6559 99.329 25.6632 99.3151 25.6706C99.3011 25.6779 99.2879 25.685 99.2737 25.6917C99.2598 25.699 99.2459 25.7063 99.2317 25.713C99.2185 25.7201 99.2043 25.7267 99.1904 25.7341C99.1762 25.7407 99.1621 25.7473 99.1481 25.7547C99.1347 25.7611 99.1205 25.7677 99.1066 25.7751C99.0924 25.7817 99.0783 25.7883 99.0641 25.795C99.0499 25.8016 99.0365 25.808 99.0223 25.8147C99.0075 25.8215 98.994 25.8279 98.9799 25.8346C98.9657 25.8412 98.9516 25.8478 98.9374 25.8545C98.9232 25.8611 98.9091 25.8677 98.8947 25.8737C98.8806 25.8803 98.8662 25.8862 98.852 25.8929C98.8379 25.8995 98.8235 25.9054 98.8094 25.9121C98.795 25.918 98.7806 25.9239 98.7665 25.9306C98.7521 25.9365 98.7377 25.9424 98.7236 25.9491C98.7092 25.955 98.6948 25.9609 98.6804 25.9669C98.6663 25.9735 98.6517 25.9787 98.6373 25.9846C98.6232 25.9913 98.6086 25.9965 98.5942 26.0024C98.5801 26.0091 98.5653 26.0136 98.5509 26.0195C98.5367 26.0262 98.5221 26.0314 98.5076 26.0366C98.4934 26.0432 98.4786 26.0478 98.4635 26.0539C98.4494 26.0605 98.4346 26.0651 98.42 26.0703C98.4058 26.0769 98.391 26.0814 98.3764 26.0867C98.3616 26.0912 98.3475 26.0978 98.3329 26.103C98.3181 26.1076 98.303 26.1137 98.2884 26.1189C98.2736 26.1235 98.2593 26.1294 98.2445 26.1339C98.2297 26.1384 98.2155 26.1451 98.2007 26.1496C98.1859 26.1541 98.171 26.161 98.1562 26.1655C98.1414 26.17 98.1273 26.1767 98.1125 26.1812C98.0977 26.1857 98.0835 26.1923 98.0687 26.1968C98.0539 26.2013 98.0384 26.2061 98.0236 26.2106C98.0088 26.2151 97.994 26.2196 97.9792 26.2242C97.9644 26.2287 97.9496 26.2332 97.9348 26.2377C97.9256 26.2405 97.9172 26.2431 97.9087 26.2457C97.8939 26.2502 97.8791 26.2547 97.8643 26.2593C97.8495 26.2638 97.834 26.2685 97.8192 26.273C97.8044 26.2776 97.7896 26.2821 97.7748 26.2866C97.76 26.2911 97.7452 26.2956 97.7304 26.3002C97.7156 26.3047 97.6995 26.3073 97.6847 26.3118C97.6699 26.3164 97.6544 26.3188 97.6396 26.3233C97.6248 26.3278 97.6093 26.3302 97.5945 26.3347C97.5797 26.3393 97.5636 26.3419 97.5488 26.3464C97.534 26.3509 97.5188 26.354 97.504 26.3585C97.4892 26.3631 97.4737 26.3655 97.4587 26.3693C97.4439 26.3738 97.4277 26.3764 97.4127 26.3802C97.3979 26.3848 97.3825 26.3872 97.3675 26.391C97.3522 26.3941 97.3374 26.3986 97.3222 26.4017C97.3067 26.4041 97.2919 26.4087 97.2767 26.4118C97.2615 26.4149 97.2458 26.4189 97.2305 26.422C97.2158 26.4242 97.2008 26.4281 97.1848 26.4314C97.1694 26.4338 97.1544 26.4376 97.1391 26.4407C97.1237 26.4431 97.1087 26.4469 97.0934 26.4501C97.078 26.4525 97.063 26.4563 97.0475 26.4587C97.0323 26.4618 97.0171 26.4649 97.0018 26.468C96.9862 26.4697 96.9711 26.4735 96.9559 26.4766C96.9405 26.4791 96.925 26.4815 96.9098 26.4846C96.8943 26.487 96.8796 26.4892 96.8637 26.4925C96.8482 26.4949 96.8335 26.4971 96.818 26.4995C96.8021 26.5028 96.7873 26.505 96.7717 26.5067C96.7564 26.5098 96.741 26.5122 96.7254 26.5139C96.7099 26.5163 96.6944 26.5187 96.679 26.5211C96.6636 26.5236 96.6488 26.5257 96.6332 26.5274C96.6177 26.5299 96.6023 26.5323 96.5866 26.534C96.5711 26.5364 96.5557 26.5388 96.5407 26.5403C96.5253 26.5427 96.5096 26.5444 96.494 26.5461C96.4783 26.5478 96.4629 26.5502 96.4479 26.5517C96.4325 26.5541 96.4168 26.5558 96.4018 26.5573C96.3855 26.5592 96.3705 26.5607 96.3548 26.5624C96.3392 26.5641 96.3242 26.5656 96.3086 26.5673C96.2929 26.569 96.2779 26.5705 96.2621 26.5715C96.2466 26.5739 96.2314 26.5746 96.2158 26.5764C96.1999 26.5773 96.1842 26.5791 96.1691 26.5798C96.1534 26.5815 96.1382 26.5823 96.1226 26.584C96.1067 26.585 96.0915 26.5858 96.0759 26.5875C96.0607 26.5883 96.0448 26.5893 96.0292 26.591C96.014 26.5918 95.9981 26.5928 95.9829 26.5935C95.9671 26.5945 95.9512 26.5955 95.936 26.5963C95.9201 26.5973 95.9049 26.5981 95.8891 26.5991C95.8739 26.5999 95.8578 26.6002 95.8426 26.601C95.8275 26.6018 95.8116 26.6027 95.7962 26.6028C95.7803 26.6038 95.7651 26.6046 95.7498 26.6047C95.7337 26.605 95.7185 26.6058 95.7024 26.606C95.6872 26.6068 95.6718 26.6069 95.6557 26.6072C95.6404 26.6073 95.6252 26.6081 95.6091 26.6084C95.5937 26.6084 95.5783 26.6085 95.5622 26.6088C95.5468 26.6089 95.5314 26.609 95.5161 26.609C95.5 26.6093 95.4846 26.6094 95.4692 26.6095C95.4538 26.6096 95.4377 26.6099 95.423 26.6097C95.4067 26.6093 95.3913 26.6094 95.3757 26.6088C95.3603 26.6088 95.3447 26.6082 95.3293 26.6083C95.314 26.6084 95.2984 26.6077 95.282 26.6073C95.2667 26.6074 95.2518 26.6066 95.2355 26.6061C95.2201 26.6062 95.2045 26.6056 95.1889 26.605C95.174 26.6041 95.1584 26.6035 95.1421 26.6031C95.1265 26.6025 95.1108 26.6018 95.0959 26.601C95.0803 26.6004 95.0647 26.5998 95.0489 26.5984C95.0333 26.5978 95.0177 26.5971 95.0021 26.5965C94.9863 26.5952 94.9714 26.5944 94.9558 26.5937C94.9409 26.5929 94.9251 26.5916 94.9095 26.5909C94.8936 26.5896 94.878 26.589 94.8629 26.5874C94.8471 26.5861 94.8315 26.5855 94.8164 26.5839C94.8008 26.5833 94.7848 26.5812 94.7699 26.5804C94.754 26.5791 94.7382 26.5778 94.7231 26.5762C94.7073 26.5749 94.6922 26.5733 94.6764 26.572C94.6613 26.5705 94.6452 26.5684 94.6301 26.5669C94.6143 26.5655 94.5992 26.564 94.5831 26.562C94.568 26.5604 94.5529 26.5589 94.5369 26.5568C94.5218 26.5553 94.5057 26.5532 94.4906 26.5517C94.4755 26.5502 94.4602 26.5479 94.4444 26.5466C94.429 26.5443 94.413 26.5423 94.3977 26.54C94.3823 26.5378 94.3672 26.5362 94.3519 26.534C94.3368 26.5324 94.3207 26.5304 94.3054 26.5281C94.2901 26.5259 94.2748 26.5236 94.2594 26.5214C94.2441 26.5191 94.2286 26.5162 94.2132 26.5139C94.1979 26.5117 94.1826 26.5094 94.1672 26.5072C94.1512 26.5051 94.1366 26.5027 94.121 26.4997C94.1057 26.4975 94.0902 26.4945 94.0748 26.4922C94.0593 26.4893 94.044 26.487 94.0284 26.4841C94.0131 26.4818 93.9983 26.4787 93.9827 26.4757C93.9674 26.4735 93.9518 26.4705 93.937 26.4673C93.9217 26.4651 93.9061 26.4621 93.8906 26.4592C93.8757 26.456 93.8602 26.453 93.8454 26.4499C93.8298 26.4469 93.815 26.4437 93.7994 26.4408C93.7839 26.4378 93.7688 26.4339 93.7533 26.431C93.7384 26.4278 93.7236 26.4247 93.7079 26.421C93.693 26.4178 93.6775 26.4149 93.6624 26.411C93.6469 26.408 93.6318 26.4041 93.617 26.401C93.6014 26.398 93.5864 26.3942 93.5715 26.391C93.5558 26.3873 93.5407 26.3835 93.5259 26.3803C93.5106 26.3757 93.4958 26.3725 93.4807 26.3687C93.465 26.365 93.4499 26.3611 93.4348 26.3572C93.42 26.3541 93.405 26.3502 93.3897 26.3456C93.3748 26.3424 93.3598 26.3385 93.3445 26.334C93.3295 26.3301 93.3144 26.3262 93.2994 26.3224C93.2843 26.3185 93.269 26.3139 93.254 26.31C93.2396 26.3059 93.2244 26.3013 93.2093 26.2975C93.194 26.2929 93.1797 26.2888 93.1646 26.2849C93.1494 26.2803 93.135 26.2762 93.1197 26.2717C93.1045 26.2671 93.0894 26.2632 93.0748 26.2584C93.0596 26.2538 93.045 26.249 93.03 26.2451C93.0154 26.2404 93.0001 26.2358 92.9856 26.231C92.9703 26.2264 92.9557 26.2216 92.9412 26.2168C92.9259 26.2122 92.9113 26.2074 92.8961 26.2029C92.8815 26.1981 92.8669 26.1933 92.8521 26.1878C92.8376 26.183 92.8223 26.1784 92.8078 26.1736C92.793 26.1681 92.7784 26.1633 92.7639 26.1585C92.7491 26.153 92.7338 26.1484 92.7197 26.1427C92.7044 26.1381 92.6897 26.1326 92.6751 26.1278C92.661 26.1221 92.6458 26.1175 92.6317 26.1118C92.6169 26.1063 92.6021 26.1008 92.5873 26.0953C92.5728 26.0905 92.558 26.085 92.5432 26.0795C92.5292 26.0738 92.5144 26.0683 92.4998 26.0635C92.4855 26.0571 92.4709 26.0523 92.4567 26.0459C92.4419 26.0404 92.4278 26.0346 92.413 26.0291C92.3982 26.0236 92.3842 26.0179 92.3699 26.0115C92.3551 26.006 92.3403 26.0005 92.3262 25.9948C92.3119 25.9884 92.2972 25.9829 92.2829 25.9764C92.2688 25.9707 92.254 25.9652 92.2397 25.9588C92.2256 25.9531 92.2107 25.9469 92.1973 25.9409C92.1828 25.9338 92.168 25.9283 92.1546 25.9224C92.1394 25.9155 92.1253 25.9098 92.1111 25.9034C92.097 25.8977 92.0827 25.8912 92.0684 25.8848C92.0541 25.8784 92.0398 25.872 92.0255 25.8655C92.0119 25.8589 91.9977 25.8525 91.9834 25.8461C91.9691 25.8396 91.9555 25.833 91.9412 25.8266C91.9267 25.8194 91.9131 25.8128 91.8988 25.8064C91.8845 25.8 91.8709 25.7933 91.8564 25.7862C91.8429 25.7796 91.8283 25.7725 91.8148 25.7658C91.8005 25.7594 91.7867 25.7521 91.7731 25.7454C91.7586 25.7383 91.745 25.7317 91.7305 25.7245C91.7167 25.7172 91.7031 25.7106 91.6893 25.7032C91.6757 25.6966 91.6612 25.6895 91.6476 25.6828C91.6338 25.6755 91.62 25.6682 91.6062 25.6608C91.5924 25.6535 91.5786 25.6461 91.5648 25.6388C91.5512 25.6322 91.5372 25.6241 91.5236 25.6175C91.5096 25.6094 91.4965 25.6019 91.4827 25.5945C91.4689 25.5872 91.4551 25.5799 91.4413 25.5725C91.4282 25.565 91.4142 25.5569 91.4004 25.5496C91.3873 25.542 91.3735 25.5347 91.3602 25.5264C91.3464 25.5191 91.3333 25.5115 91.3193 25.5035C91.3062 25.4959 91.2924 25.4886 91.2791 25.4803C91.2658 25.472 91.2519 25.4647 91.2386 25.4564C91.2255 25.4489 91.2115 25.4408 91.1982 25.4326C91.1851 25.425 91.1718 25.4168 91.1585 25.4085C91.1454 25.401 91.1321 25.3927 91.1188 25.3844C91.1055 25.3762 91.0924 25.3686 91.0791 25.3603C91.0658 25.3521 91.0524 25.3438 91.0391 25.3356C91.0258 25.3273 91.0132 25.3188 90.9999 25.3106C90.9866 25.3023 90.9733 25.2941 90.9607 25.2856C90.9474 25.2773 90.9338 25.2683 90.9212 25.2599C90.9079 25.2516 90.8953 25.2431 90.8818 25.2342C90.8692 25.2257 90.8559 25.2174 90.8433 25.209C90.8297 25.2 90.8171 25.1915 90.8043 25.1823C90.7917 25.1739 90.7782 25.1649 90.7656 25.1564C90.753 25.148 90.7401 25.1388 90.7273 25.1296C90.7147 25.1211 90.7012 25.1122 90.6891 25.1028C90.6765 25.0943 90.6629 25.0853 90.6501 25.0761C90.6382 25.0674 90.6254 25.0583 90.6126 25.0491C90.6 25.0406 90.5871 25.0314 90.575 25.022C90.5622 25.0129 90.5494 25.0037 90.5373 24.9943C90.5244 24.9851 90.5116 24.9759 90.4997 24.9672C90.4867 24.9573 90.4746 24.9479 90.4617 24.9388C90.4496 24.9294 90.4375 24.92 90.4247 24.9108C90.4126 24.9014 90.4004 24.892 90.3874 24.8821C90.3753 24.8727 90.3632 24.8633 90.3504 24.8542C90.338 24.8441 90.3259 24.8346 90.3138 24.8252C90.3015 24.8151 90.2893 24.8058 90.2772 24.7964C90.2649 24.7863 90.2528 24.7769 90.2411 24.7665C90.2283 24.7574 90.2167 24.747 90.2046 24.7377C90.1923 24.7276 90.1801 24.7182 90.1685 24.7078C90.1562 24.6977 90.1441 24.6884 90.1324 24.678C90.1203 24.6687 90.1087 24.6583 90.0964 24.6482C90.0849 24.6386 90.0733 24.6283 90.061 24.6182C90.0487 24.6081 90.037 24.5978 90.0254 24.5875C90.0138 24.5772 90.0024 24.5675 89.99 24.5574C89.9782 24.5464 89.9668 24.5368 89.9551 24.5265C89.9435 24.5162 89.9319 24.5059 89.9203 24.4955C89.9086 24.4852 89.8968 24.4742 89.8852 24.4639C89.8735 24.4536 89.8626 24.4431 89.851 24.4327C89.8394 24.4224 89.8275 24.4114 89.8159 24.4011C89.805 24.3906 89.7934 24.3802 89.7822 24.369C89.7706 24.3587 89.759 24.3484 89.7478 24.3371C89.7369 24.3266 89.7253 24.3163 89.7141 24.3051C89.7025 24.2947 89.6914 24.2835 89.6804 24.273C89.6695 24.2624 89.6584 24.2512 89.6468 24.2409C89.6356 24.2297 89.6245 24.2184 89.6136 24.2079C89.6024 24.1966 89.5915 24.1861 89.5804 24.1749C89.5694 24.1643 89.5583 24.1531 89.5472 24.1419C89.536 24.1307 89.5258 24.1199 89.5147 24.1087C89.5035 24.0974 89.4931 24.086 89.4822 24.0755C89.471 24.0642 89.4599 24.053 89.4495 24.0415C89.4392 24.0308 89.4279 24.0188 89.4175 24.0074C89.4063 23.9961 89.3961 23.9854 89.385 23.9742C89.3745 23.9627 89.3641 23.9513 89.3537 23.9398C89.343 23.9277 89.3321 23.9171 89.3217 23.9057C89.3112 23.8942 89.3008 23.8828 89.2902 23.8706C89.2797 23.8592 89.2693 23.8477 89.2589 23.8363C89.2484 23.8248 89.2385 23.8124 89.228 23.801C89.2176 23.7895 89.2072 23.7781 89.1975 23.7664C89.1868 23.7543 89.1771 23.7426 89.1666 23.7311C89.156 23.719 89.1463 23.7074 89.1358 23.6959C89.1261 23.6842 89.1155 23.6721 89.1057 23.6604C89.0958 23.648 89.0854 23.6366 89.0754 23.6242C89.0657 23.6125 89.0557 23.6002 89.0453 23.5887C89.0361 23.5761 89.0263 23.5645 89.0157 23.5523C89.006 23.5406 88.996 23.5283 88.9863 23.5166C88.9771 23.504 88.9664 23.4919 88.9574 23.48C88.9474 23.4676 88.9377 23.456 88.9285 23.4434C88.9185 23.431 88.9088 23.4193 88.8996 23.4067C88.8896 23.3944 88.8804 23.3818 88.8707 23.3701C88.8607 23.3578 88.8515 23.3452 88.8423 23.3326C88.833 23.32 88.8231 23.3076 88.814 23.2957C88.8048 23.2831 88.7956 23.2706 88.7856 23.2582C88.7764 23.2456 88.7671 23.233 88.7579 23.2204C88.7487 23.2078 88.7396 23.196 88.7304 23.1834C88.721 23.1701 88.7117 23.1575 88.7032 23.1447C88.6942 23.1328 88.6849 23.1202 88.6755 23.1069C88.6669 23.0941 88.6577 23.0816 88.6494 23.0695C88.6399 23.0562 88.6307 23.0436 88.6222 23.0308C88.6129 23.0182 88.6044 23.0054 88.5951 22.9928C88.5866 22.98 88.5779 22.9665 88.5693 22.9537C88.5601 22.9411 88.5515 22.9283 88.5428 22.9148C88.5343 22.902 88.5257 22.8892 88.5172 22.8764C88.5087 22.8636 88.5001 22.8508 88.4914 22.8373C88.4829 22.8245 88.4743 22.8117 88.4656 22.7982C88.4577 22.7852 88.449 22.7717 88.4405 22.7589C88.4326 22.7459 88.4239 22.7324 88.4154 22.7195C88.4075 22.7065 88.3995 22.6928 88.3909 22.68C88.3831 22.667 88.3744 22.6535 88.3665 22.6405C88.3585 22.6267 88.3507 22.6137 88.3419 22.6002C88.3341 22.5872 88.3253 22.5737 88.3175 22.5607C88.3095 22.547 88.3023 22.5337 88.2938 22.5209C88.2858 22.5072 88.2777 22.4935 88.2699 22.4805C88.2626 22.4665 88.2545 22.4528 88.2467 22.4398C88.2386 22.4261 88.2315 22.4128 88.2235 22.3991C88.2156 22.3861 88.2083 22.3722 88.2003 22.3585C88.1924 22.3454 88.1851 22.3315 88.1778 22.3176C88.1697 22.3038 88.1626 22.2906 88.1552 22.2767C88.1481 22.2634 88.1401 22.2497 88.1327 22.2358C88.1256 22.2226 88.1183 22.2086 88.1109 22.1947C88.1038 22.1814 88.0963 22.1668 88.0891 22.1536C88.0818 22.1396 88.0744 22.1257 88.0673 22.1125C88.06 22.0985 88.0526 22.0846 88.046 22.0704C88.0387 22.0565 88.0316 22.0433 88.0249 22.0291C88.0176 22.0152 88.0102 22.0012 88.0036 21.9871C87.9963 21.9732 87.9899 21.9597 87.9832 21.9456C87.9766 21.9314 87.9692 21.9175 87.9626 21.9033C87.956 21.8892 87.9486 21.8752 87.9422 21.8618C87.9356 21.8476 87.9289 21.8335 87.9223 21.8193C87.9157 21.8052 87.909 21.791 87.9024 21.7769C87.8965 21.7625 87.8892 21.7486 87.8832 21.7342C87.8766 21.7201 87.8699 21.7059 87.8633 21.6917C87.8574 21.6774 87.851 21.6639 87.845 21.6496C87.8382 21.6347 87.8323 21.6203 87.8258 21.6069C87.8199 21.5925 87.8131 21.5777 87.8071 21.5633C87.8014 21.5496 87.7955 21.5353 87.7893 21.5202C87.7836 21.5065 87.777 21.4924 87.7711 21.478C87.7649 21.4629 87.759 21.4486 87.7531 21.4342C87.7471 21.4198 87.7414 21.4062 87.7353 21.3911C87.7293 21.3768 87.7241 21.3622 87.7182 21.3478C87.7122 21.3334 87.707 21.3189 87.7011 21.3045C87.6959 21.2899 87.6899 21.2755 87.684 21.2612C87.6786 21.2459 87.6729 21.2322 87.6676 21.2176C87.6615 21.2026 87.657 21.1878 87.6511 21.1734C87.6458 21.1588 87.6406 21.1442 87.6354 21.1297C87.6294 21.1153 87.6242 21.1007 87.6188 21.0854C87.6136 21.0708 87.6083 21.0563 87.6031 21.0417C87.5979 21.0271 87.5934 21.0123 87.5881 20.9977C87.5829 20.9831 87.5784 20.9683 87.5732 20.9537C87.5679 20.9392 87.5632 20.9237 87.558 20.9091C87.5528 20.8945 87.5482 20.8797 87.5437 20.8649C87.5385 20.8503 87.534 20.8355 87.5287 20.8209C87.524 20.8054 87.5195 20.7906 87.515 20.7758C87.5105 20.761 87.5052 20.7465 87.5007 20.7317C87.4981 20.7232 87.4955 20.7148 87.4928 20.7056C87.4882 20.6908 87.4837 20.676 87.4792 20.6612C87.4747 20.6464 87.4701 20.6316 87.4663 20.6166C87.4616 20.6011 87.4571 20.5863 87.4533 20.5713C87.4487 20.5565 87.4449 20.5415 87.4404 20.5267C87.4366 20.5117 87.4321 20.4969 87.4283 20.4818C87.4235 20.4663 87.4197 20.4513 87.4159 20.4363C87.4121 20.4213 87.4076 20.4065 87.4038 20.3915C87.3999 20.3765 87.3961 20.3615 87.3921 20.3458C87.3883 20.3307 87.3845 20.3157 87.3806 20.3007C87.3768 20.2857 87.373 20.2707 87.3692 20.2557C87.3654 20.2407 87.3616 20.2256 87.3578 20.2106C87.3546 20.1954 87.3506 20.1797 87.3475 20.1645C87.3437 20.1495 87.3406 20.1342 87.3368 20.1192C87.3337 20.104 87.3298 20.089 87.3267 20.0737C87.3236 20.0585 87.3198 20.0435 87.3167 20.0283C87.3134 20.0123 87.3105 19.9978 87.3067 19.9828C87.3033 19.9669 87.3002 19.9516 87.2973 19.9371C87.294 19.9212 87.2918 19.9065 87.2885 19.8905C87.2854 19.8753 87.2825 19.8608 87.2794 19.8455C87.2761 19.8296 87.2736 19.8142 87.2705 19.7989C87.2674 19.7837 87.265 19.7683 87.2619 19.753C87.2597 19.7383 87.2566 19.7231 87.254 19.7069C87.2518 19.6922 87.2487 19.6769 87.2463 19.6615C87.2439 19.6461 87.2408 19.6308 87.2384 19.6154C87.2359 19.5999 87.2336 19.5845 87.2311 19.5691C87.2287 19.5536 87.2263 19.5382 87.2239 19.5227C87.2215 19.5073 87.2191 19.4918 87.2169 19.4771C87.2145 19.4617 87.2128 19.446 87.2104 19.4306C87.208 19.4151 87.2056 19.3997 87.2039 19.384C87.2022 19.3684 87.2 19.3536 87.1983 19.3379C87.1959 19.3225 87.1942 19.3069 87.1918 19.2914C87.1903 19.2765 87.1886 19.2608 87.1862 19.2453C87.1845 19.2297 87.1828 19.214 87.1813 19.1991C87.1796 19.1834 87.1779 19.1678 87.1764 19.1528C87.1747 19.1371 87.173 19.1215 87.1713 19.1058C87.1696 19.0902 87.1682 19.0752 87.1665 19.0596C87.1648 19.0439 87.164 19.0287 87.1623 19.0131C87.1606 18.9974 87.1598 18.9823 87.1581 18.9666C87.1573 18.9514 87.1556 18.9358 87.1546 18.9199C87.1529 18.9042 87.1521 18.8891 87.1511 18.8732C87.1496 18.8582 87.1487 18.8424 87.1479 18.8272C87.1469 18.8113 87.1461 18.7961 87.1451 18.7803C87.1441 18.7644 87.1433 18.7492 87.1416 18.7336C87.1416 18.7182 87.1406 18.7023 87.1398 18.6871C87.1388 18.6713 87.138 18.6561 87.1379 18.6407C87.1369 18.6248 87.1362 18.6097 87.1352 18.5938C87.1351 18.5784 87.1341 18.5625 87.134 18.5472C87.1332 18.532 87.1329 18.5159 87.1329 18.5005C87.1319 18.4846 87.1318 18.4692 87.131 18.4541C87.1307 18.438 87.1306 18.4226 87.1306 18.4072C87.1303 18.3911 87.1302 18.3757 87.1294 18.3606C87.1291 18.3445 87.1291 18.3291 87.129 18.3137C87.1296 18.2981 87.1295 18.2827 87.1293 18.2666C87.1292 18.2513 87.1291 18.2359 87.1297 18.2203C87.1294 18.2042 87.1296 18.1895 87.13 18.1732C87.1299 18.1578 87.1298 18.1424 87.1305 18.1268C87.1304 18.1114 87.131 18.0958 87.1316 18.0802C87.1316 18.0649 87.1322 18.0493 87.1328 18.0337C87.1325 18.0176 87.1334 18.0027 87.134 17.9871C87.1346 17.9715 87.1353 17.9559 87.1357 17.9396C87.1365 17.9247 87.1372 17.9091 87.1378 17.8935C87.1384 17.8779 87.1391 17.8623 87.1397 17.8467C87.1403 17.8311 87.1416 17.8153 87.1425 17.8004C87.1438 17.7846 87.1445 17.769 87.1451 17.7534C87.1459 17.7385 87.1473 17.7226 87.1479 17.707C87.1492 17.6912 87.1506 17.6754 87.1514 17.6605C87.1527 17.6447 87.1543 17.6296 87.1549 17.614C87.1562 17.5982 87.1578 17.5831 87.1584 17.5675C87.1605 17.5514 87.1613 17.5365 87.1627 17.5207C87.1642 17.5056 87.1655 17.4898 87.1671 17.4747C87.1684 17.4589 87.17 17.4438 87.172 17.4277C87.1735 17.4126 87.1749 17.3968 87.1762 17.381C87.1785 17.3657 87.18 17.3506 87.1814 17.3347C87.1836 17.3194 87.1852 17.3043 87.1872 17.2883C87.1887 17.2732 87.191 17.2578 87.1923 17.242C87.1946 17.2267 87.1968 17.2114 87.1989 17.1953C87.2004 17.1802 87.2027 17.1649 87.2049 17.1496C87.2063 17.1338 87.2087 17.1191 87.211 17.1038C87.213 17.0878 87.2153 17.0725 87.2176 17.0571C87.2198 17.0418 87.2228 17.0263 87.225 17.0109C87.2273 16.9956 87.2295 16.9803 87.2318 16.965C87.234 16.9496 87.237 16.9341 87.2392 16.9188C87.2422 16.9032 87.2445 16.8879 87.2474 16.8724C87.2497 16.857 87.2521 16.8424 87.2549 16.8262C87.2581 16.8113 87.2603 16.796 87.2633 16.7805C87.2655 16.7651 87.2694 16.7501 87.2717 16.7348C87.2746 16.7192 87.2776 16.7037 87.2807 16.6888C87.283 16.6735 87.2869 16.6585 87.2891 16.6431C87.2928 16.6274 87.2953 16.6128 87.2982 16.5972C87.3021 16.5822 87.3051 16.5666 87.308 16.5511C87.3112 16.5362 87.3144 16.5214 87.318 16.5057C87.3212 16.4908 87.3242 16.4753 87.3281 16.4602C87.3312 16.4454 87.3349 16.4296 87.3381 16.4148C87.3412 16.4 87.3449 16.3842 87.3488 16.3691C87.352 16.3543 87.3556 16.3386 87.3595 16.3235C87.3627 16.3087 87.3666 16.2936 87.3704 16.2786C87.3741 16.2628 87.378 16.2478 87.3819 16.2327C87.386 16.2184 87.3896 16.2026 87.3935 16.1876C87.3967 16.1727 87.4013 16.1575 87.4051 16.1424C87.409 16.1273 87.4129 16.1123 87.4168 16.0972C87.4216 16.0827 87.4252 16.0669 87.4293 16.0526C87.4332 16.0375 87.4378 16.0223 87.4417 16.0072C87.4465 15.9926 87.4503 15.9776 87.4549 15.9623C87.459 15.948 87.4636 15.9327 87.4675 15.9177C87.4723 15.9031 87.4769 15.8878 87.4808 15.8728C87.4856 15.8582 87.4901 15.843 87.4949 15.8284C87.4988 15.8133 87.5043 15.7986 87.5082 15.7835C87.513 15.7689 87.5178 15.7544 87.5224 15.7391C87.527 15.7239 87.5318 15.7093 87.5366 15.6947C87.5411 15.6795 87.5459 15.6649 87.5515 15.6501C87.5563 15.6356 87.561 15.621 87.5663 15.6055C87.5711 15.5909 87.5759 15.5764 87.5814 15.5616C87.5862 15.547 87.5917 15.5323 87.5965 15.5177C87.6013 15.5031 87.6068 15.4884 87.6116 15.4738C87.6171 15.459 87.6227 15.4443 87.6274 15.4297C87.633 15.4149 87.6385 15.4001 87.644 15.3853C87.6488 15.3708 87.6545 15.3567 87.66 15.3419C87.6655 15.3272 87.671 15.3124 87.6767 15.2983C87.6822 15.2835 87.6877 15.2687 87.6934 15.2547C87.6989 15.2399 87.7047 15.2258 87.7102 15.211C87.7159 15.197 87.7221 15.182 87.7278 15.1679C87.7333 15.1531 87.739 15.1391 87.7455 15.1248C87.751 15.11 87.7567 15.0959 87.7629 15.0809C87.7686 15.0669 87.775 15.0526 87.7808 15.0385C87.787 15.0235 87.7927 15.0094 87.7991 14.9951C87.8048 14.9811 87.8112 14.9668 87.8177 14.9525C87.8234 14.9384 87.8298 14.9241 87.8362 14.9098C87.8427 14.8956 87.8484 14.8815 87.8555 14.867C87.8619 14.8527 87.8677 14.8386 87.8741 14.8243C87.8805 14.81 87.8869 14.7957 87.8933 14.7815C87.9 14.7679 87.9071 14.7534 87.9135 14.7391C87.92 14.7248 87.9266 14.7112 87.933 14.6969C87.9395 14.6826 87.9468 14.6688 87.9534 14.6553C87.9599 14.641 87.9663 14.6267 87.9736 14.6129C87.9801 14.5986 87.9874 14.5848 87.9947 14.571C88.0014 14.5574 88.0085 14.5429 88.0152 14.5293C88.0216 14.515 88.0289 14.5012 88.0363 14.4874C88.0436 14.4736 88.0502 14.46 88.0576 14.4462C88.0649 14.4324 88.0721 14.418 88.0787 14.4044C88.086 14.3906 88.0934 14.3768 88.1007 14.363C88.1081 14.3492 88.1154 14.3354 88.1228 14.3216C88.1303 14.3085 88.1377 14.2947 88.145 14.2809C88.1524 14.2671 88.1599 14.254 88.168 14.24C88.1746 14.2264 88.1827 14.2124 88.1902 14.1993C88.1976 14.1855 88.2058 14.1722 88.2132 14.1584C88.2205 14.1446 88.2281 14.1315 88.2361 14.1175C88.2437 14.1044 88.2519 14.0911 88.2593 14.0773C88.2676 14.064 88.2751 14.0509 88.2832 14.0368C88.2907 14.0238 88.299 14.0105 88.3065 13.9974C88.3153 13.9831 88.3229 13.97 88.3311 13.9567C88.3387 13.9436 88.3469 13.9303 88.3552 13.917C88.3635 13.9037 88.3717 13.8904 88.38 13.8771C88.3876 13.864 88.3958 13.8507 88.4043 13.8381C88.4126 13.8248 88.4208 13.8115 88.4291 13.7981C88.4374 13.7848 88.4456 13.7715 88.4541 13.7589C88.4631 13.7454 88.4716 13.7328 88.4798 13.7195C88.4881 13.7062 88.4966 13.6936 88.5058 13.6807C88.514 13.6674 88.5232 13.6546 88.5308 13.6415C88.5399 13.6287 88.5484 13.6161 88.5574 13.6026C88.5659 13.59 88.5748 13.5764 88.5835 13.5645C88.5925 13.551 88.601 13.5384 88.6095 13.5258C88.6184 13.5123 88.6278 13.5002 88.6363 13.4875C88.6455 13.4747 88.6547 13.4619 88.6632 13.4493C88.6723 13.4365 88.6815 13.4237 88.6907 13.4109C88.6999 13.398 88.7093 13.3859 88.7178 13.3733C88.727 13.3605 88.7361 13.3477 88.7455 13.3356C88.7547 13.3227 88.7639 13.3099 88.7733 13.2978C88.7825 13.285 88.7919 13.2729 88.8011 13.26C88.8105 13.2479 88.8199 13.2358 88.8291 13.223C88.8385 13.2109 88.8486 13.1985 88.858 13.1864C88.8671 13.1736 88.8765 13.1615 88.8866 13.1492C88.896 13.137 88.9054 13.1249 88.9148 13.1128C88.9247 13.0998 88.9341 13.0877 88.9435 13.0756C88.9536 13.0632 88.963 13.0511 88.9734 13.0395C88.9828 13.0274 88.9929 13.015 89.0023 13.0029C89.0124 12.9906 89.022 12.9792 89.0321 12.9668C89.0424 12.9552 89.0518 12.9431 89.0619 12.9308C89.072 12.9184 89.0816 12.907 89.0917 12.8947C89.102 12.8831 89.1124 12.8714 89.1218 12.8593C89.1321 12.8477 89.1424 12.8361 89.1525 12.8237C89.1628 12.8121 89.1731 12.8005 89.1832 12.7882C89.1938 12.7772 89.2034 12.7658 89.2135 12.7535C89.2245 12.7417 89.2349 12.73 89.2452 12.7184C89.2555 12.7068 89.2658 12.6951 89.2761 12.6835C89.2867 12.6726 89.297 12.661 89.3073 12.6494C89.3183 12.6375 89.3286 12.6259 89.3392 12.615C89.3495 12.6033 89.3598 12.5917 89.3711 12.5806C89.3816 12.5697 89.3919 12.558 89.4029 12.5462C89.4135 12.5353 89.424 12.5243 89.435 12.5125C89.4456 12.5016 89.4568 12.4904 89.4671 12.4788C89.4784 12.4677 89.4889 12.4568 89.5001 12.4456C89.5105 12.434 89.5217 12.4229 89.5322 12.4119C89.5435 12.4008 89.554 12.3899 89.5653 12.3787C89.5765 12.3676 89.5877 12.3565 89.5983 12.3455C89.6097 12.3351 89.6202 12.3242 89.6315 12.3131C89.6427 12.3019 89.6542 12.2915 89.6647 12.2806C89.6759 12.2694 89.6874 12.259 89.6987 12.2479C89.7101 12.2374 89.7213 12.2263 89.7328 12.2159C89.7433 12.2049 89.7557 12.195 89.7662 12.1841C89.7777 12.1736 89.7899 12.163 89.8004 12.1521C89.8126 12.1414 89.824 12.131 89.8352 12.1199C89.8467 12.1094 89.8582 12.099 89.8698 12.0893C89.8813 12.0788 89.8927 12.0684 89.9042 12.058C89.9156 12.0475 89.9271 12.0371 89.9393 12.0264C89.9507 12.016 89.9624 12.0063 89.9738 11.9959C89.9862 11.9859 89.9977 11.9755 90.0098 11.9648C90.0215 11.9551 90.033 11.9447 90.0453 11.9347C90.0568 11.9243 90.0685 11.9146 90.0808 11.9046C90.0923 11.8942 90.104 11.8845 90.1163 11.8745C90.1278 11.8641 90.1402 11.8542 90.1525 11.8442C90.1642 11.8345 90.1766 11.8245 90.1882 11.8148C90.2006 11.8049 90.2123 11.7951 90.2247 11.7852C90.2363 11.7755 90.2487 11.7655 90.2606 11.7565C90.273 11.7466 90.2853 11.7366 90.297 11.7269C90.3094 11.717 90.322 11.7077 90.3344 11.6978C90.3462 11.6887 90.3586 11.6788 90.371 11.6689C90.3836 11.6596 90.3955 11.6506 90.4081 11.6414C90.4204 11.6314 90.433 11.6222 90.4449 11.6132C90.4575 11.6039 90.4699 11.594 90.4825 11.5847C90.4951 11.5755 90.5076 11.5663 90.5202 11.557C90.5328 11.5478 90.5454 11.5385 90.558 11.5293C90.5706 11.5201 90.5832 11.5108 90.5958 11.5016C90.6086 11.4931 90.6212 11.4838 90.6338 11.4746C90.6464 11.4653 90.6592 11.4568 90.6717 11.4476C90.6843 11.4383 90.6969 11.4291 90.7097 11.4206C90.7225 11.412 90.7351 11.4028 90.7479 11.3943C90.7614 11.3855 90.774 11.3763 90.7868 11.3677C90.7996 11.3592 90.8132 11.3505 90.8257 11.3412C90.8388 11.3334 90.8513 11.3242 90.8644 11.3163C90.8777 11.3069 90.8905 11.2983 90.9035 11.2905C90.9163 11.282 90.9298 11.2732 90.9426 11.2647C90.9554 11.2562 90.9691 11.2481 90.982 11.2396C90.9948 11.2311 91.0076 11.2225 91.0213 11.2145C91.0348 11.2057 91.0478 11.1979 91.0606 11.1894C91.0734 11.1808 91.0872 11.1728 91.1009 11.1647C91.1137 11.1562 91.1274 11.1482 91.1404 11.1403C91.1532 11.1318 91.167 11.1238 91.1807 11.1157C91.1937 11.1079 91.2074 11.0998 91.2204 11.092C91.2342 11.084 91.2472 11.0761 91.2609 11.0681C91.2739 11.0603 91.2879 11.0529 91.3009 11.0451C91.3146 11.0371 91.3284 11.029 91.3416 11.0219C91.3553 11.0138 91.3683 11.006 91.3823 10.9987C91.3955 10.9915 91.4092 10.9835 91.4232 10.9762C91.4369 10.9681 91.4501 10.961 91.4639 10.953C91.4778 10.9456 91.491 10.9385 91.505 10.9311C91.5189 10.9238 91.5319 10.916 91.5459 10.9086C91.5598 10.9013 91.5738 10.894 91.587 10.8868C91.6009 10.8795 91.6149 10.8722 91.6288 10.8648C91.643 10.8582 91.6562 10.8511 91.6702 10.8437C91.6841 10.8364 91.6982 10.8297 91.7122 10.8224C91.7261 10.8151 91.7396 10.8086 91.7537 10.802C91.7677 10.7947 91.7818 10.788 91.7951 10.7809C91.8099 10.7741 91.8234 10.7676 91.8375 10.761C91.8517 10.7544 91.8658 10.7477 91.8798 10.7404C91.8939 10.7338 91.9081 10.7271 91.9216 10.7207C91.9355 10.7134 91.9496 10.7067 91.964 10.7008C91.9782 10.6942 91.9923 10.6875 92.0065 10.6809C92.0206 10.6743 92.035 10.6683 92.0492 10.6617C92.0633 10.6551 92.0777 10.6491 92.0919 10.6425C92.106 10.6359 92.1204 10.6299 92.1348 10.624C92.1482 10.6176 92.1633 10.6114 92.1776 10.6055C92.1918 10.5989 92.2062 10.593 92.2198 10.5872C92.2347 10.5804 92.2493 10.5752 92.2634 10.5685C92.2778 10.5626 92.2922 10.5567 92.3066 10.5507C92.3209 10.5448 92.3355 10.5396 92.3499 10.5336C92.364 10.527 92.3786 10.5218 92.393 10.5159C92.4072 10.5092 92.422 10.5047 92.4363 10.4988C92.4507 10.4928 92.4653 10.4876 92.4797 10.4817C92.494 10.4758 92.5095 10.471 92.5239 10.4651C92.5381 10.4585 92.5529 10.4539 92.5674 10.4487C92.5823 10.4442 92.5964 10.4376 92.6112 10.433C92.626 10.4285 92.6409 10.4217 92.6557 10.4171C92.6705 10.4126 92.6846 10.406 92.6994 10.4015C92.7142 10.3969 92.7284 10.3903 92.7432 10.3858C92.758 10.3813 92.7721 10.3746 92.7869 10.3701C92.8024 10.3654 92.8168 10.3594 92.8316 10.3549C92.8464 10.3504 92.8606 10.3438 92.8754 10.3392C92.89 10.334 92.9055 10.3293 92.9205 10.3255C92.9351 10.3202 92.9499 10.3157 92.9649 10.3119C92.9795 10.3067 92.9943 10.3022 93.0093 10.2983C93.0185 10.2955 93.0269 10.293 93.0354 10.2904C93.05 10.2851 93.0648 10.2806 93.0798 10.2768C93.0944 10.2716 93.1092 10.2671 93.1242 10.2632C93.1395 10.2578 93.1543 10.2533 93.1693 10.2495C93.1839 10.2442 93.1987 10.2397 93.2137 10.2359C93.2285 10.2314 93.2447 10.2288 93.2595 10.2242C93.2743 10.2197 93.2895 10.2166 93.3043 10.2121C93.3191 10.2076 93.3346 10.2052 93.3494 10.2006C93.3642 10.1961 93.3803 10.1935 93.3951 10.189C93.4099 10.1844 93.4254 10.182 93.4402 10.1775C93.455 10.173 93.4704 10.1706 93.4859 10.1659C93.5007 10.1613 93.5157 10.1598 93.5305 10.1553C93.546 10.1506 93.5614 10.1482 93.5764 10.1444C93.5919 10.142 93.6067 10.1374 93.6219 10.1343C93.6374 10.1319 93.6522 10.1274 93.6674 10.1243C93.6826 10.1212 93.6976 10.1174 93.7129 10.1143C93.729 10.1116 93.7433 10.108 93.7586 10.1049C93.7745 10.1016 93.7895 10.0978 93.8048 10.0947C93.8204 10.093 93.8354 10.0892 93.8507 10.086C93.8659 10.0829 93.8811 10.0798 93.8964 10.0767C93.9118 10.0743 93.927 10.0712 93.9423 10.0681C93.9577 10.0657 93.973 10.0626 93.9882 10.0594C94.0036 10.057 94.0189 10.0539 94.0343 10.0515C94.0495 10.0484 94.065 10.046 94.0804 10.0436C94.0952 10.0414 94.1111 10.0381 94.1259 10.0359C94.1413 10.0335 94.1568 10.0311 94.1722 10.0287C94.1874 10.0255 94.2031 10.0238 94.2185 10.0214C94.2338 10.0183 94.2494 10.0166 94.2649 10.0142C94.2796 10.012 94.2951 10.0096 94.3107 10.0079C94.3262 10.0055 94.3418 10.0038 94.3573 10.0014C94.373 9.9997 94.3877 9.99751 94.4031 9.9951C94.4188 9.9934 94.4343 9.99099 94.4499 9.98928C94.4656 9.98758 94.4803 9.98539 94.496 9.98368C94.5116 9.98198 94.5271 9.97959 94.5428 9.97788C94.5577 9.9764 94.5734 9.97469 94.589 9.97299C94.604 9.9715 94.6197 9.96979 94.6353 9.96809C94.6503 9.9666 94.6659 9.96491 94.6818 9.96391C94.6975 9.96221 94.7124 9.96072 94.7283 9.95972C94.744 9.95802 94.7592 9.95723 94.7748 9.95553C94.7907 9.95453 94.8056 9.95305 94.8215 9.95205C94.8372 9.95035 94.8524 9.94957 94.8682 9.94857C94.8839 9.94687 94.8991 9.94609 94.915 9.94509C94.9299 9.94361 94.9458 9.9426 94.961 9.94182C94.9768 9.94082 94.992 9.94003 95.0079 9.93904C95.0231 9.93825 95.0389 9.93727 95.055 9.93697C95.0702 9.93619 95.0854 9.93541 95.1013 9.93441C95.1171 9.93341 95.1323 9.93263 95.1477 9.93255C95.1638 9.93226 95.179 9.93147 95.1941 9.93069C95.2102 9.9304 95.2256 9.93031 95.2408 9.92953C95.2569 9.92924 95.272 9.92847 95.2881 9.92818C95.3035 9.9281 95.3189 9.92801 95.335 9.92771C95.3504 9.92764 95.3658 9.92757 95.3817 9.92657C95.3971 9.92649 95.4124 9.92641 95.4278 9.92633C95.4432 9.92625 95.4593 9.92596 95.4747 9.92589C95.4903 9.92651 95.5057 9.92644 95.5211 9.92636C95.5372 9.92607 95.5528 9.9267 95.5682 9.92662C95.5835 9.92654 95.5992 9.92716 95.6145 9.92708C95.6301 9.92771 95.6465 9.92812 95.6611 9.92825C95.6767 9.92888 95.693 9.9293 95.7084 9.92922C95.724 9.92984 95.7396 9.93048 95.7552 9.93111C95.7708 9.93174 95.7864 9.93236 95.8021 9.93299C95.8167 9.93312 95.8323 9.93375 95.8482 9.93508C95.8638 9.93571 95.8794 9.93633 95.895 9.93696C95.9106 9.93758 95.9262 9.93822 95.942 9.93955C95.9569 9.9404 95.9725 9.94101 95.9883 9.94234C96.0039 9.94297 96.0188 9.94381 96.0346 9.94514C96.0505 9.94647 96.0661 9.94711 96.081 9.94795C96.0968 9.94928 96.1126 9.95062 96.1277 9.95217C96.1433 9.95279 96.1591 9.95411 96.1742 9.95566C96.1901 9.95699 96.2059 9.95833 96.221 9.95987C96.2368 9.9612 96.2519 9.96275 96.2677 9.96408C96.2829 9.96563 96.2987 9.96697 96.3138 9.96852C96.3289 9.97006 96.3449 9.9721 96.3608 9.97343C96.3759 9.97498 96.3917 9.9763 96.407 9.97856C96.4221 9.9801 96.4375 9.98236 96.4535 9.98439C96.4686 9.98594 96.4844 9.98727 96.4998 9.98952C96.5151 9.99177 96.5304 9.99402 96.5462 9.99535C96.5616 9.9976 96.5769 9.99985 96.592 10.0014C96.6073 10.0036 96.6234 10.0057 96.6387 10.0079C96.654 10.0102 96.6693 10.0124 96.6847 10.0147C96.7 10.0169 96.7153 10.0192 96.7307 10.0214C96.746 10.0237 96.762 10.0257 96.7769 10.0289C96.7922 10.0312 96.8082 10.0332 96.8231 10.0364C96.8384 10.0386 96.8537 10.0409 96.8693 10.0438C96.8848 10.0468 96.9001 10.049 96.9157 10.052C96.9303 10.0545 96.9459 10.0574 96.9614 10.0604C96.9767 10.0626 96.9923 10.0656 97.0078 10.0685C97.0224 10.071 97.038 10.0739 97.0528 10.0771C97.0684 10.0801 97.0839 10.083 97.0988 10.0862C97.1143 10.0892 97.1291 10.0923 97.1447 10.0953C97.1602 10.0982 97.1751 10.1014 97.1906 10.1044C97.2057 10.1082 97.2212 10.1112 97.236 10.1144C97.2509 10.1176 97.2666 10.1212 97.2817 10.1251C97.2972 10.128 97.3121 10.1312 97.3278 10.1349C97.342 10.1383 97.3577 10.1419 97.3726 10.1451C97.3883 10.1488 97.4034 10.1526 97.4182 10.1558C97.4333 10.1597 97.4483 10.1636 97.4641 10.1672C97.4789 10.1704 97.494 10.1743 97.509 10.1781C97.5241 10.182 97.5391 10.1859 97.5542 10.1898C97.5693 10.1936 97.5843 10.1975 97.5994 10.2014C97.6144 10.2053 97.6297 10.2099 97.6447 10.2137C97.6598 10.2176 97.6749 10.2215 97.6901 10.2261C97.7045 10.2302 97.7195 10.234 97.7348 10.2386C97.7499 10.2425 97.7644 10.2473 97.7795 10.2512C97.7947 10.2557 97.8091 10.2598 97.8244 10.2644C97.8396 10.269 97.8547 10.2729 97.8692 10.2777C97.8845 10.2822 97.8989 10.2863 97.9134 10.2911C97.9287 10.2957 97.944 10.3003 97.9585 10.3051C97.9731 10.3099 97.9884 10.3145 98.0034 10.3183C98.0182 10.3238 98.0328 10.3286 98.0473 10.3334C98.0626 10.338 98.0772 10.3428 98.092 10.3483C98.1072 10.3529 98.1218 10.3577 98.1363 10.3625C98.1511 10.368 98.1657 10.3728 98.1803 10.3776C98.195 10.3831 98.2096 10.3879 98.2242 10.3927C98.2397 10.398 98.2544 10.4035 98.2683 10.4085C98.2838 10.4138 98.2976 10.4188 98.3124 10.4243C98.3272 10.4298 98.342 10.4353 98.3565 10.4401C98.3713 10.4456 98.3861 10.4511 98.4002 10.4568C98.415 10.4623 98.4297 10.4678 98.4436 10.4728C98.4586 10.479 98.4732 10.4838 98.4874 10.4902C98.502 10.495 98.5168 10.5005 98.5311 10.5069C98.5459 10.5124 98.5599 10.5181 98.5747 10.5236C98.589 10.5301 98.6031 10.5358 98.6179 10.5413C98.6322 10.5477 98.6469 10.5532 98.6612 10.5596C98.6753 10.5653 98.6894 10.5711 98.7044 10.5773C98.7185 10.583 98.7327 10.5894 98.7468 10.5951C98.7611 10.6015 98.7752 10.6072 98.7895 10.6137C98.8045 10.6199 98.8188 10.6263 98.8328 10.632C98.8471 10.6384 98.8616 10.6456 98.8757 10.6513C98.8893 10.6579 98.9043 10.6641 98.9186 10.6705C98.9322 10.6772 98.9464 10.6836 98.9607 10.69C98.975 10.6964 98.9886 10.7031 99.0029 10.7095C99.0172 10.7159 99.0308 10.7226 99.0453 10.7297C99.0596 10.7361 99.0732 10.7427 99.0877 10.7499C99.1012 10.7565 99.1156 10.7629 99.1294 10.7703C99.1436 10.7767 99.1572 10.7833 99.171 10.7907C99.1853 10.7971 99.1991 10.8044 99.2136 10.8115C99.2272 10.8182 99.241 10.8255 99.2546 10.8321C99.2684 10.8395 99.2829 10.8466 99.2965 10.8533C99.3103 10.8606 99.3241 10.8679 99.3379 10.8753C99.3515 10.8819 99.3655 10.89 99.3793 10.8973C99.3929 10.9039 99.4067 10.9113 99.4205 10.9186C99.4336 10.9262 99.4476 10.9342 99.4612 10.9409C99.4752 10.9489 99.489 10.9562 99.5021 10.9638C99.5159 10.9711 99.5297 10.9785 99.5428 10.986C99.5568 10.9941 99.5706 11.0014 99.5839 11.0097C99.5977 11.017 99.6108 11.0246 99.6248 11.0326C99.6379 11.0402 99.6517 11.0475 99.665 11.0558C99.6781 11.0633 99.6922 11.0714 99.7052 11.0789C99.7186 11.0872 99.7316 11.0947 99.7457 11.1028C99.759 11.111 99.7723 11.1193 99.7854 11.1269C99.7987 11.1351 99.812 11.1434 99.8253 11.1516C99.8386 11.1599 99.8517 11.1675 99.865 11.1757C99.8783 11.184 99.8917 11.1922 99.905 11.2005C99.9183 11.2088 99.9309 11.2172 99.9442 11.2255C99.9575 11.2338 99.9708 11.242 99.9834 11.2505C99.9967 11.2587 100.01 11.267 100.023 11.2762C100.036 11.2845 100.049 11.2929 100.062 11.3012C100.075 11.3104 100.088 11.3186 100.101 11.3271C100.113 11.3356 100.127 11.3445 100.14 11.353C100.152 11.3622 100.165 11.3707 100.179 11.3796C100.191 11.3881 100.204 11.3973 100.217 11.4058C100.229 11.415 100.242 11.4234 100.255 11.4326C100.268 11.4416 100.281 11.4508 100.293 11.4601C100.306 11.4686 100.319 11.4778 100.332 11.487C100.344 11.4955 100.356 11.5049 100.369 11.514C100.382 11.5232 100.395 11.5324 100.407 11.5418C100.419 11.5503 100.432 11.5602 100.444 11.5689C100.457 11.5787 100.469 11.5874 100.482 11.5973C100.494 11.6067 100.507 11.6159 100.519 11.6253C100.532 11.6347 100.544 11.6441 100.556 11.6533C100.569 11.6634 100.581 11.6728 100.594 11.6819C100.606 11.692 100.618 11.7014 100.63 11.7108C100.642 11.7202 100.655 11.7303 100.667 11.7397C100.679 11.7498 100.691 11.7592 100.704 11.7693C100.715 11.7789 100.727 11.7883 100.74 11.7984C100.752 11.8078 100.763 11.8181 100.776 11.8282C100.788 11.8376 100.8 11.8477 100.812 11.858C100.824 11.8674 100.835 11.8777 100.848 11.8878C100.859 11.8975 100.871 11.9076 100.883 11.9179C100.895 11.9282 100.907 11.9383 100.919 11.9486C100.93 11.9589 100.942 11.9685 100.954 11.9786C100.966 11.9889 100.977 11.9993 100.989 12.0096C101.001 12.0199 101.012 12.0302 101.024 12.0405C101.035 12.0508 101.047 12.0612 101.059 12.0722C101.071 12.0825 101.081 12.093 101.093 12.1033C101.105 12.1137 101.116 12.124 101.128 12.135C101.139 12.1455 101.151 12.1558 101.162 12.1664C101.174 12.1774 101.184 12.1879 101.196 12.1982C101.207 12.2088 101.219 12.2198 101.23 12.2303C101.242 12.2413 101.253 12.2519 101.264 12.2631C101.275 12.2734 101.286 12.2849 101.297 12.2954C101.308 12.3064 101.319 12.317 101.331 12.3282C101.341 12.3387 101.353 12.35 101.364 12.3612C101.375 12.3717 101.386 12.383 101.397 12.3942C101.407 12.4049 101.418 12.4162 101.429 12.4274C101.441 12.4387 101.452 12.4499 101.462 12.4606C101.473 12.4719 101.483 12.4833 101.495 12.4945C101.506 12.5051 101.516 12.5172 101.526 12.528C101.538 12.5392 101.548 12.5507 101.559 12.5619C101.57 12.5734 101.58 12.5848 101.59 12.5963C101.601 12.6077 101.612 12.6189 101.622 12.6304C101.633 12.6419 101.643 12.6533 101.654 12.6647C101.664 12.6769 101.675 12.6884 101.685 12.6998C101.695 12.7115 101.705 12.7229 101.716 12.7344C101.726 12.7465 101.737 12.758 101.747 12.7694C101.757 12.7818 101.767 12.7935 101.777 12.8049C101.788 12.8164 101.798 12.8287 101.808 12.8402C101.818 12.8519 101.829 12.864 101.838 12.8757C101.848 12.8873 101.859 12.8995 101.869 12.9119C101.878 12.9235 101.888 12.9359 101.898 12.9476C101.909 12.9597 101.918 12.9714 101.928 12.9838C101.938 12.9954 101.948 13.0071 101.957 13.0197C101.968 13.0318 101.977 13.0437 101.987 13.0561C101.996 13.0678 102.006 13.0801 102.016 13.0927C102.026 13.1051 102.035 13.1168 102.045 13.1293C102.054 13.1417 102.064 13.1541 102.073 13.166C102.083 13.1785 102.093 13.1909 102.102 13.2035C102.112 13.2159 102.121 13.2277 102.13 13.2403C102.139 13.2529 102.149 13.2653 102.158 13.2772C102.168 13.2898 102.177 13.3031 102.186 13.3156C102.195 13.3275 102.204 13.3401 102.214 13.3527C102.222 13.3655 102.232 13.3779 102.241 13.3904C102.25 13.4032 102.259 13.4158 102.268 13.4286C102.277 13.4419 102.286 13.4538 102.295 13.4666C102.304 13.4799 102.313 13.4925 102.322 13.5053C102.331 13.5179 102.34 13.5307 102.348 13.5435C102.357 13.5561 102.366 13.5689 102.375 13.5824C102.383 13.5952 102.393 13.6078 102.401 13.6206C102.41 13.6334 102.418 13.6469 102.427 13.6597C102.435 13.6725 102.444 13.6853 102.453 13.6988C102.461 13.7116 102.47 13.7244 102.478 13.7381C102.486 13.7509 102.495 13.7637 102.504 13.7772C102.512 13.79 102.52 13.803 102.528 13.816C102.537 13.8295 102.544 13.8426 102.553 13.8561C102.561 13.8691 102.57 13.8826 102.578 13.8956C102.586 13.9091 102.594 13.9221 102.602 13.9351C102.61 13.9489 102.618 13.9619 102.627 13.9754C102.634 13.9884 102.642 14.0021 102.65 14.0152C102.658 14.0289 102.666 14.0419 102.674 14.0556C102.682 14.0695 102.689 14.0826 102.697 14.0963C102.705 14.11 102.713 14.1232 102.721 14.137C102.728 14.15 102.736 14.1639 102.744 14.1776C102.751 14.1909 102.759 14.2046 102.766 14.2178C102.774 14.2315 102.782 14.2455 102.789 14.2594C102.797 14.2724 102.804 14.2864 102.811 14.3003C102.818 14.3135 102.826 14.3275 102.833 14.3414C102.84 14.3546 102.848 14.3684 102.855 14.3825C102.862 14.3964 102.87 14.4104 102.877 14.4236C102.884 14.4376 102.891 14.4515 102.898 14.4656C102.905 14.4796 102.913 14.4928 102.919 14.507C102.927 14.5209 102.933 14.535 102.94 14.549C102.947 14.5631 102.954 14.5764 102.961 14.5905C102.968 14.6047 102.975 14.6186 102.981 14.6328C102.988 14.6469 102.995 14.6601 103.002 14.6743C103.009 14.6885 103.015 14.7026 103.022 14.7167C103.028 14.7309 103.035 14.7451 103.042 14.7592C103.048 14.7734 103.054 14.7877 103.061 14.8019C103.068 14.816 103.074 14.8295 103.08 14.8445C103.087 14.8587 103.093 14.8721 103.099 14.8865C103.106 14.9007 103.112 14.915 103.118 14.9292C103.124 14.9435 103.13 14.9579 103.137 14.9721C103.143 14.9864 103.149 15.0008 103.155 15.0152C103.161 15.0293 103.167 15.0437 103.173 15.0581C103.179 15.0731 103.185 15.0875 103.191 15.1011C103.197 15.1162 103.203 15.1299 103.209 15.145C103.215 15.1593 103.22 15.1739 103.226 15.1883C103.232 15.2026 103.237 15.2172 103.243 15.2316C103.249 15.246 103.254 15.2605 103.26 15.2749C103.266 15.2902 103.271 15.3039 103.276 15.3184C103.282 15.3337 103.287 15.3483 103.293 15.3627C103.298 15.3773 103.304 15.3918 103.309 15.4064C103.314 15.421 103.32 15.4354 103.324 15.4502C103.33 15.4645 103.335 15.4793 103.341 15.4937C103.346 15.509 103.351 15.5238 103.356 15.5384C103.361 15.5529 103.366 15.5675 103.371 15.5823C103.376 15.5969 103.382 15.6122 103.386 15.627C103.391 15.6416 103.396 15.6564 103.401 15.671C103.406 15.6858 103.41 15.7006 103.415 15.7151C103.42 15.7306 103.425 15.7445 103.43 15.76C103.434 15.7748 103.439 15.7896 103.443 15.8044ZM44.6531 45.5927L38.0813 24.0793C35.6467 24.7921 34.1649 26.455 33.2714 28.3811L38.2435 44.6599C40.061 45.7588 42.2231 46.3233 44.6531 45.5927ZM32.5638 28.5973C32.5638 28.5973 20.609 23.2506 10.2016 31.0055C10.2016 31.0055 17.7686 29.7081 21.2823 31.2804C27.451 34.0409 10.2016 31.0055 0.0628143 47.4592C17.6647 55.4398 30.2744 43.2844 26.7009 49.0206C24.6652 52.2878 17.6647 55.4399 17.6647 55.4399C30.6291 56.0562 37.5561 44.9423 37.5561 44.9423L32.5638 28.5973Z" fill="black"/>
</svg>
